HIERARCHY
ROOT Hips
{
	OFFSET 0.00000 0.00000 0.00000
	CHANNELS 6 Xposition Yposition Zposition Zrotation Yrotation Xrotation 
	JOINT LHipJoint
	{
		OFFSET 0 0 0
		CHANNELS 3 Zrotation Yrotation Xrotation
		JOINT LeftHip
		{
			OFFSET 1.80322 -1.53100 0.99595
			CHANNELS 3 Zrotation Yrotation Xrotation
			JOINT LeftKnee
			{
				OFFSET 2.25177 -6.18669 0.00000
				CHANNELS 3 Zrotation Yrotation Xrotation
				JOINT LeftAnkle
				{
					OFFSET 2.26601 -6.22582 0.00000
					CHANNELS 3 Zrotation Yrotation Xrotation
					JOINT LeftToe
					{
						OFFSET 0.23701 -0.65119 2.15848
						CHANNELS 3 Zrotation Yrotation Xrotation
						End Site
						{
							OFFSET 0.00000 -0.00000 1.12949
						}
					}
				}
			}
		}
	}
	JOINT RHipJoint
	{
		OFFSET 0 0 0
		CHANNELS 3 Zrotation Yrotation Xrotation
		JOINT RightHip
		{
			OFFSET -1.93977 -1.53100 0.99595
			CHANNELS 3 Zrotation Yrotation Xrotation
			JOINT RightKnee
			{
				OFFSET -2.28036 -6.26523 0.00000
				CHANNELS 3 Zrotation Yrotation Xrotation
				JOINT RightAnkle
				{
					OFFSET -2.25490 -6.19528 0.00000
					CHANNELS 3 Zrotation Yrotation Xrotation
					JOINT RightToe
					{
						OFFSET -0.28375 -0.77960 2.23137
						CHANNELS 3 Zrotation Yrotation Xrotation
						End Site
						{
							OFFSET -0.00000 -0.00000 1.17899
						}
					}
				}
			}
		}
	}
	JOINT lowerback
	{
		OFFSET 0 0 0
		CHANNELS 3 Zrotation Yrotation Xrotation
		JOINT Chest
		{
			OFFSET -0.00088 2.12090 -0.02806
			CHANNELS 3 Zrotation Yrotation Xrotation
			JOINT Chest2
			{
				OFFSET -0.00286 2.09666 0.12974
				CHANNELS 3 Zrotation Yrotation Xrotation
				JOINT lowerneck
				{
					OFFSET 0 0 0
					CHANNELS 3 Zrotation Yrotation Xrotation
					JOINT Neck
					{
						OFFSET 0.07328 1.83526 0.07290
						CHANNELS 3 Zrotation Yrotation Xrotation
						JOINT Head
						{
							OFFSET -0.06683 1.74974 -0.49542
							CHANNELS 3 Zrotation Yrotation Xrotation
							End Site
							{
								OFFSET -0.03398 1.85163 -0.17573
							}
						}
					}
				}
				JOINT LeftCollar
				{
					OFFSET 0 0 0
					CHANNELS 3 Zrotation Yrotation Xrotation
					JOINT LeftShoulder
					{
						OFFSET 3.02113 1.18018 0.40602
CHANNELS 3 Zrotation Xrotation Yrotation
						JOINT LeftElbow
						{
OFFSET 0 -4.585380 -0.000000
CHANNELS 3 Zrotation Xrotation Yrotation
							JOINT LeftWrist
							{
OFFSET 0 -2.689350 -0.000000
CHANNELS 3 Zrotation Xrotation Yrotation
								JOINT lhand
								{
									OFFSET 0 0 0
CHANNELS 3 Zrotation Xrotation Yrotation
									JOINT LFingers
									{
OFFSET 0 -0.585060 -0.000000
CHANNELS 3 Zrotation Xrotation Yrotation
										End Site
										{
OFFSET 0 -0.471690 -0.000000
										}
									}
								}
								JOINT LThumb
								{
OFFSET 0 0.000000 0.000000
CHANNELS 3 Zrotation Xrotation Yrotation
									End Site
									{
OFFSET 0 -0.478890 0.478890
									}
								}
							}
						}
					}
				}
				JOINT RightCollar
				{
					OFFSET 0 0 0
					CHANNELS 3 Zrotation Yrotation Xrotation
					JOINT RightShoulder
					{
						OFFSET -2.95074 1.18843 0.31430
CHANNELS 3 Zrotation Xrotation Yrotation
						JOINT RightElbow
						{
OFFSET 0 -4.474500 -0.000000
CHANNELS 3 Zrotation Xrotation Yrotation
							JOINT RightWrist
							{
OFFSET 0 -2.938960 -0.000000
CHANNELS 3 Zrotation Xrotation Yrotation
								JOINT rhand
								{
									OFFSET 0 0 0
CHANNELS 3 Zrotation Xrotation Yrotation
									JOINT RFingers
									{
OFFSET 0 -0.405090 -0.000000
CHANNELS 3 Zrotation Xrotation Yrotation
										End Site
										{
OFFSET 0 -0.326600 -0.000000
										}
									}
								}
								JOINT RThumb
								{
OFFSET 0 0.000000 0.000000
CHANNELS 3 Zrotation Xrotation Yrotation
									End Site
									{
OFFSET 0 -0.331580 0.331580
									}
								}
							}
						}
					}
				}
			}
		}
	}
}
MOTION
Frames: 5
Frame Time: 0.008333333333333333
1.155546 14.635933 0.956935 0.521914 8.205912 12.015151 0.000000 0.000000 0.000000 -20.803466 -20.053149 -45.313736 5.941649 14.370929 44.745980 0.161382 0.157616 -7.647089 0.637261 5.107220 14.214733 0.000000 0.000000 0.000000 17.556615 -7.601004 -8.074410 -10.900256 -17.874553 62.442612 0.023901 -8.596231 -11.902863 -1.135089 6.763713 -19.018087 6.826012 6.367752 -4.354944 -1.187856 8.465689 -7.788421 -4.904393 3.877028 -4.571704 5.665999 -0.347580 -11.466102 -5.759475 0.735357 42.128393 -3.497329 0.648367 17.435285 0.000000 0.000000 0.000000 37.947204 -8.548218 -29.109268 158.037783 -32.934305 113.434726 29.388611 1.951069 -3.715296 0.000000 0.000000 0.000000 -7.125000 0.000000 0.000000 2.276110 34.235216 0.601657 0.000000 0.000000 0.000000 -22.439256 -12.687034 33.068466 -150.857501 -40.146941 -109.147528 -35.643719 -22.337581 -12.328111 0.000000 0.000000 0.000000 7.125000 0.000000 0.000000 -5.742810 14.979562 -4.084134
1.253033 14.775233 1.291175 1.479186 14.860713 9.319882 0.000000 0.000000 0.000000 -25.036487 -21.307065 -37.293226 5.003811 13.387682 40.838386 0.124349 -1.599508 -6.297490 0.747403 5.521970 15.403667 0.000000 0.000000 0.000000 14.785353 -9.068937 -20.761447 -18.517462 -19.930787 85.658364 -0.561478 2.397968 -13.541202 -1.808867 8.454588 -24.104500 5.686337 5.444084 -3.113863 -0.190186 7.324598 -6.726382 -3.368139 3.406658 -4.533913 4.092853 -1.854161 -10.434529 -5.496083 -1.102673 42.540098 -3.373612 -0.270531 17.235144 0.000000 0.000000 0.000000 35.056015 -11.122170 -32.744904 157.864468 -33.129879 113.340210 29.420704 2.812462 -3.840448 0.000000 0.000000 0.000000 -7.125000 0.000000 0.000000 2.302746 34.379758 0.600620 0.000000 0.000000 0.000000 -24.483266 -11.658572 29.541408 -151.236466 -39.809653 -109.391040 -35.756408 -23.055017 -12.108106 0.000000 0.000000 0.000000 7.125000 0.000000 0.000000 -5.849359 15.224725 -4.129928
1.305051 14.913657 1.562483 0.085717 20.806682 6.211217 0.000000 0.000000 0.000000 -25.979874 -22.557991 -30.562798 4.460108 12.748611 38.434710 0.097939 -2.940052 -5.620539 0.845441 5.864783 16.392502 0.000000 0.000000 0.000000 13.706057 -8.443133 -35.075395 -25.317193 -19.303911 105.723939 -0.874579 6.438856 -16.680445 -2.104455 9.080311 -26.046833 6.165709 4.478548 -2.024856 1.592613 6.122695 -5.471529 -1.848415 2.859674 -4.085772 2.828707 -2.981934 -9.577104 -5.345554 -2.466646 42.502841 -3.250611 -0.985491 16.907876 0.000000 0.000000 0.000000 31.581968 -14.051392 -37.465542 157.862581 -33.132035 113.339213 29.353732 2.336793 -3.827625 0.000000 0.000000 0.000000 -7.125000 0.000000 0.000000 2.247454 34.362459 0.587039 0.000000 0.000000 0.000000 -26.626007 -11.640697 26.208102 -151.432406 -39.633554 -109.516230 -35.639176 -23.289926 -12.378586 0.000000 0.000000 0.000000 7.125000 0.000000 0.000000 -5.732703 14.919812 -4.084285
1.331273 14.966805 1.812426 -0.934476 25.116793 2.897146 0.000000 0.000000 0.000000 -27.022527 -24.090575 -24.455059 4.260684 12.499420 37.522312 0.119661 -3.082111 -6.191133 0.841130 5.850216 16.350445 0.000000 0.000000 0.000000 11.066557 -6.599098 -50.579222 -29.785198 -17.525803 119.800023 -1.023220 6.736020 -18.054082 -1.918725 8.694447 -24.844206 5.928722 3.752173 -0.873882 3.043217 5.222774 -4.197903 -0.267010 2.479682 -3.620107 2.107598 -3.863099 -8.478858 -5.193433 -3.604776 42.523164 -3.176200 -1.521308 16.587275 0.000000 0.000000 0.000000 28.539232 -16.992773 -42.423840 157.301504 -33.757336 113.029950 28.949052 3.376122 -3.408309 0.000000 0.000000 0.000000 -7.125000 0.000000 0.000000 1.914646 33.868787 0.522961 0.000000 0.000000 0.000000 -27.689470 -11.920207 23.723877 -151.458093 -39.610334 -109.532576 -35.612348 -23.243952 -12.508583 0.000000 0.000000 0.000000 7.125000 0.000000 0.000000 -5.696493 14.768589 -4.076708
1.336438 14.926464 2.088139 -1.386919 28.570361 -1.557063 0.000000 0.000000 0.000000 -29.281064 -25.027395 -17.484647 4.349075 12.610925 37.928952 0.199219 -2.759222 -7.926246 0.787083 5.663464 15.811056 0.000000 0.000000 0.000000 7.665638 -3.486542 -64.518014 -31.351956 -16.575817 125.135203 -0.801935 4.324867 -16.007773 -1.497081 7.727427 -21.889918 4.575156 2.972978 1.255612 4.382408 4.262766 -2.460767 1.792957 2.086430 -3.251004 1.529633 -4.447502 -7.874235 -5.037287 -4.349869 42.760119 -3.093940 -1.869144 16.550418 0.000000 0.000000 0.000000 25.620848 -19.597756 -46.672205 156.510082 -34.620148 112.585183 28.463353 3.796332 -2.963915 0.000000 0.000000 0.000000 -7.125000 0.000000 0.000000 1.517925 33.347577 0.433618 0.000000 0.000000 0.000000 -27.919407 -12.632563 22.246901 -151.520492 -39.553918 -109.572381 -35.429113 -23.447137 -12.603452 0.000000 0.000000 0.000000 7.125000 0.000000 0.000000 -5.559930 14.685995 -3.987910
